<svg xmlns="http://www.w3.org/2000/svg" xmlns:xlink="http://www.w3.org/1999/xlink" id="Layer_1" width="100" height="100" x="0" y="0" enable-background="new 0 0 100 100" version="1.1" viewBox="0 0 100 100" xml:space="preserve"><g id="new_logo"><path fill="#FFF" d="M51.942,8.213v31.513h22.087V8.213H51.942z M64.984,23.772v5.532h-3.938v-5.473l-5.371-8.664h4.463 l2.906,4.968l2.93-4.968h4.382L64.984,23.772z"/><path fill="#FFF" d="M77.914,0v39.729H100V0H77.914z M89.473,29.588c-4.038,0-7.29-3.088-7.29-7.311v-0.039 c0-4.12,3.17-7.351,7.451-7.351c2.888,0,4.745,1.21,5.997,2.948l-2.947,2.282c-0.809-1.01-1.736-1.655-3.09-1.655 c-1.979,0-3.372,1.674-3.372,3.734v0.042c0,2.119,1.393,3.775,3.372,3.775c1.475,0,2.343-0.688,3.189-1.716l2.95,2.1 C94.399,28.234,92.603,29.588,89.473,29.588z"/><path fill="#FFF" d="M25.971,4.678v35.049h22.087V4.678H25.971z M43.895,29.305h-3.434l-6.037-7.754v7.754h-3.877V15.168h3.655 l5.816,7.471v-7.471h3.877V29.305z"/><polygon fill="#FFF" points="4.794 29.375 8.208 29.375 11.034 21.238 13.883 29.375 17.295 29.375 22.02 15.139 17.962 15.139 15.497 23.318 12.772 15.099 9.399 15.099 6.673 23.318 4.21 15.139 .069 15.139"/><rect width="22.088" height="6.714" y="33.013" fill="#FFF"/></g><g id="new_logo_1_"><path fill="#222" d="M51.942,50.213v31.514h22.087V50.213H51.942z M64.984,65.771v5.533h-3.939v-5.473l-5.371-8.664h4.464 l2.907,4.969l2.928-4.969h4.383L64.984,65.771z"/><path fill="#222" d="M77.914,42v39.729H100V42H77.914z M89.473,71.587c-4.039,0-7.289-3.087-7.289-7.31v-0.039 c0-4.121,3.169-7.352,7.449-7.352c2.889,0,4.746,1.211,5.998,2.948l-2.947,2.282c-0.809-1.01-1.736-1.656-3.09-1.656 c-1.979,0-3.373,1.676-3.373,3.736v0.041c0,2.119,1.394,3.775,3.373,3.775c1.475,0,2.343-0.688,3.189-1.717l2.949,2.101 C94.398,70.234,92.602,71.587,89.473,71.587z"/><path fill="#222" d="M25.971,46.678v35.049h22.087V46.678H25.971z M43.895,71.305H40.46l-6.037-7.754v7.754h-3.878V57.168h3.655 l5.816,7.473v-7.473h3.878V71.305z"/><polygon fill="#222" points="4.794 71.375 8.208 71.375 11.034 63.237 13.882 71.375 17.295 71.375 22.02 57.139 17.961 57.139 15.497 65.318 12.771 57.099 9.4 57.099 6.673 65.318 4.209 57.139 .068 57.139"/><rect width="22.088" height="6.714" y="75.013" fill="#222"/></g></svg>